<svg xmlns="http://www.w3.org/2000/svg" viewBox="0 0 315 222">
    <path 
        d="M54.7 222C38.1 222 24.9 217.5 15.1 208.5C5.50001 199.5 0.700012 187.3 0.700012 171.9C0.700012 155.1 6.70001 142.3 18.7 133.5C30.7 124.5 47.9 120 70.3 120H101.8V108C101.8 101.4 99.5 96.3 94.9 92.7C90.3 89.1 83.9 87.3 75.7 87.3C67.7 87.3 61.3 88.9 56.5 92.1C51.9 95.3 49.6 99.6 49.6 105H7.60001C8.00001 94 11 84.5 16.6 76.5C22.4 68.3 30.5 62 40.9 57.6C51.3 53.2 63.5 51 77.5 51C98.9 51 115.8 56.1 128.2 66.3C140.6 76.3 146.8 90.2 146.8 108V219H103.3V193.5H96.1L103.9 181.5C103.9 193.9 99.5 203.8 90.7 211.2C81.9 218.4 69.9 222 54.7 222ZM71.5 189.3C80.3 189.3 87.5 187 93.1 182.4C98.9 177.8 101.8 171.7 101.8 164.1V146.7H71.2C63.2 146.7 56.9 148.6 52.3 152.4C47.9 156 45.7 161.1 45.7 167.7C45.7 174.5 48 179.8 52.6 183.6C57.2 187.4 63.5 189.3 71.5 189.3Z"
        fill="currentColor"
    />
    <path 
        d="M161.583 219V0H206.583V116.4H229.383L263.883 54H313.383L267.483 134.7L314.283 219H263.883L229.083 154.2H206.583V219H161.583Z"
        fill="currentColor"
    />
</svg>
