<svg width="450" height="450" viewBox="0 0 450 450" fill="none" xmlns="http://www.w3.org/2000/svg">
<rect width="450" height="450" rx="225" fill="#171C24"/>
<path d="M125.7 336C109.1 336 95.9 331.5 86.1 322.5C76.5 313.5 71.7 301.3 71.7 285.9C71.7 269.1 77.7 256.3 89.7 247.5C101.7 238.5 118.9 234 141.3 234H172.8V222C172.8 215.4 170.5 210.3 165.9 206.7C161.3 203.1 154.9 201.3 146.7 201.3C138.7 201.3 132.3 202.9 127.5 206.1C122.9 209.3 120.6 213.6 120.6 219H78.6C79 208 82 198.5 87.6 190.5C93.4 182.3 101.5 176 111.9 171.6C122.3 167.2 134.5 165 148.5 165C169.9 165 186.8 170.1 199.2 180.3C211.6 190.3 217.8 204.2 217.8 222V333H174.3V307.5H167.1L174.9 295.5C174.9 307.9 170.5 317.8 161.7 325.2C152.9 332.4 140.9 336 125.7 336ZM142.5 303.3C151.3 303.3 158.5 301 164.1 296.4C169.9 291.8 172.8 285.7 172.8 278.1V260.7H142.2C134.2 260.7 127.9 262.6 123.3 266.4C118.9 270 116.7 275.1 116.7 281.7C116.7 288.5 119 293.8 123.6 297.6C128.2 301.4 134.5 303.3 142.5 303.3ZM232.583 333V114H277.583V230.4H300.383L334.883 168H384.383L338.483 248.7L385.283 333H334.883L300.083 268.2H277.583V333H232.583Z" fill="white"/>
</svg>
